<?xml version="1.0" encoding="UTF-8" standalone="no"?>
<!DOCTYPE svg PUBLIC "-//W3C//DTD SVG 1.1//EN" "http://www.w3.org/Graphics/SVG/1.1/DTD/svg11.dtd">
<!-- Created with Vectornator (http://vectornator.io/) -->
<svg height="100%" stroke-miterlimit="10" style="fill-rule:nonzero;clip-rule:evenodd;stroke-linecap:round;stroke-linejoin:round;" version="1.1" viewBox="0 0 1024 1024" width="100%" xml:space="preserve" xmlns="http://www.w3.org/2000/svg" xmlns:vectornator="http://vectornator.io" xmlns:xlink="http://www.w3.org/1999/xlink">
<defs/>
<g id="Layer-1" vectornator:layerName="Layer 1">
<path d="M43.319 2.70937e-14L980.681 2.70937e-14C1004.61 2.70937e-14 1024 19.1588 1024 42.7922L1024 981.207C1024 1004.84 1004.61 1024 980.681 1024L43.319 1024C19.3946 1024 0 1004.84 0 981.207L0 42.7922C0 19.1588 19.3946 2.70937e-14 43.319 2.70937e-14Z" fill="#4c7e3d" fill-rule="nonzero" opacity="1" stroke="#ffffff" stroke-linecap="butt" stroke-linejoin="round" stroke-opacity="0" stroke-width="40"/>
<path d="M110.693 94.7104L872.376 94.7104L872.376 898.438L110.693 898.438L110.693 94.7104Z" fill="#fdfdfd" fill-rule="nonzero" opacity="1" stroke="#ffffff" stroke-linecap="butt" stroke-linejoin="round" stroke-opacity="0" stroke-width="40"/>
<g opacity="1">
<path d="M13.5803 517.507L13.5803 1013.96L510.029 1013.96L1006.48 1013.96L1006.48 517.507L1006.48 21.0578L510.029 21.0578L13.5803 21.0578L13.5803 517.507ZM555.87 157.527C645.628 169.64 730.62 223.058 781.257 298.519C804.888 334.065 823.952 380.929 831.697 422.433C837.455 452.617 836.86 516.162 830.704 544.559C806.676 656.756 733.4 743.535 627.557 785.634C609.685 792.585 581.288 800.131 557.458 803.904C531.246 808.272 474.849 806.684 446.85 800.925C409.914 793.379 366.028 775.904 335.248 756.046L324.525 749.294L303.277 794.372C291.56 819.194 280.44 841.038 278.454 843.222C274.284 847.591 265.348 847.988 261.575 844.215C259.986 842.627 250.852 823.166 241.32 800.726L223.844 760.018L181.15 744.528C138.852 729.238 134.086 727.053 133.491 721.295C131.902 709.777 131.108 710.373 184.526 684.359C212.724 670.657 236.156 659.139 236.553 658.543C236.951 658.146 236.355 656.756 235.163 655.366C230.398 649.409 217.887 625.579 210.142 607.111C192.667 566.005 185.121 527.878 185.121 479.623C185.121 375.965 233.178 280.647 316.581 218.69C357.687 188.307 410.311 166.066 458.963 158.321C480.012 155.144 534.82 154.548 555.87 157.527Z" fill="#4c7e3d" fill-rule="nonzero" opacity="1" stroke="none"/>
<path d="M488.948 207.172C463.53 208.959 448.438 211.938 424.41 219.881C328.496 251.257 257.206 333.668 239.533 433.354C235.163 458.177 235.163 503.453 239.731 528.474C243.504 550.119 254.228 583.679 262.965 600.955C269.518 614.062 282.426 635.905 283.816 635.905C284.213 635.905 304.667 626.175 329.489 614.062C354.113 602.147 376.552 592.218 379.134 592.218C384.694 592.218 391.645 598.771 391.645 603.934C391.645 606.119 381.716 628.558 369.801 653.976C357.687 679.394 348.156 701.238 348.751 702.628C350.34 706.798 385.886 726.855 406.339 735.195C440.694 749.294 472.466 755.45 510.792 755.45C582.877 755.45 648.606 729.039 700.237 679.593C761.002 621.211 789.995 545.75 784.633 460.758C779.867 389.071 747.102 322.746 692.095 274.094C637.287 225.64 564.21 201.612 488.948 207.172ZM500.665 321.356C506.622 325.526 510.792 335.455 509.402 342.405C506.423 357.894 486.367 363.454 474.849 352.135C470.282 347.568 469.09 344.589 469.09 338.036C469.09 322.15 487.757 312.42 500.665 321.356ZM564.011 378.745C569.77 397.412 574.338 413.695 574.338 414.887C574.338 416.078 570.565 418.461 565.997 420.05C558.451 422.433 557.458 423.425 557.855 428.588C558.054 431.766 558.848 444.078 559.643 456.191C560.834 477.439 561.231 479.226 579.501 529.268C589.827 557.467 597.77 581.296 597.373 582.09C596.181 583.878 578.309 591.026 577.515 590.034C574.338 586.261 540.579 520.531 536.607 510.403L531.444 497.098L517.147 511.396C504.835 523.907 502.65 527.084 500.665 536.219C498.48 546.743 498.48 547.14 507.813 566.8C516.154 584.672 516.948 587.055 514.168 589.636C509.799 594.005 505.828 591.821 499.275 581.097C492.92 571.169 492.126 571.367 489.941 582.885C488.551 589.636 487.956 590.431 483.19 589.438C480.41 589.041 474.651 588.048 470.481 587.253C464.126 586.261 463.332 585.466 464.126 581.693C464.722 579.31 467.303 566.601 469.885 553.694L474.651 529.864L457.573 495.51C442.679 465.723 439.701 461.155 436.325 461.95C433.346 462.744 431.36 461.155 427.786 455C425.204 450.432 423.417 446.659 423.814 446.262C424.212 445.865 433.743 439.908 445.062 432.957L465.715 420.248L472.863 399.596L480.012 378.745L494.509 368.816L509.204 358.887L516.352 363.057C520.324 365.44 526.679 371.596 530.452 376.958C534.026 382.319 536.409 384.504 535.615 381.922C530.452 365.242 526.877 351.142 527.473 350.348C529.459 348.561 551.7 342.604 552.692 343.795C553.288 344.391 558.451 360.277 564.011 378.745Z" fill="#4c7e3d" fill-rule="nonzero" opacity="1" stroke="none"/>
<path d="M484.611 434.103C479.646 443.238 478.058 444.429 464.951 449.195L450.654 454.358L464.554 482.159L478.455 509.961L490.37 488.514C496.923 476.599 503.674 464.883 505.263 462.5C506.852 460.117 508.043 456.146 508.043 453.961C508.043 450.387 493.15 424.174 490.965 424.174C490.568 424.174 487.788 428.543 484.611 434.103Z" fill="#4c7e3d" fill-rule="nonzero" opacity="1" stroke="none"/>
<path d="M262.996 675.377C217.323 697.817 179.593 716.285 179.196 716.682C178.798 717.079 190.713 721.646 205.805 727.008C220.699 732.171 235.394 737.731 238.174 739.121C242.145 741.107 245.918 748.256 255.847 771.49C262.996 787.972 269.152 801.475 269.748 801.475C270.542 801.475 345.208 645.789 348.782 636.456C349.18 635.463 348.782 634.668 347.79 634.867C346.995 634.867 308.669 653.136 262.996 675.377Z" fill="#4c7e3d" fill-rule="nonzero" opacity="1" stroke="none"/>
</g>
</g>
</svg>
