<?xml version="1.0" encoding="UTF-8" standalone="no"?>
<!DOCTYPE svg PUBLIC "-//W3C//DTD SVG 1.1//EN" "http://www.w3.org/Graphics/SVG/1.1/DTD/svg11.dtd">
<!-- Created with Vectornator (http://vectornator.io/) -->
<svg height="100%" stroke-miterlimit="10" style="fill-rule:nonzero;clip-rule:evenodd;stroke-linecap:round;stroke-linejoin:round;" version="1.1" viewBox="0 0 25 25" width="100%" xml:space="preserve" xmlns="http://www.w3.org/2000/svg" xmlns:vectornator="http://vectornator.io" xmlns:xlink="http://www.w3.org/1999/xlink">
<defs/>
<clipPath id="ArtboardFrame">
<rect height="25" width="25" x="0" y="0"/>
</clipPath>
<g clip-path="url(#ArtboardFrame)" id="Untitled" vectornator:layerName="Untitled">
<g opacity="1">
<path d="M11.3799 0.030334C7.01439 0.455849 3.2215 3.05785 1.29815 6.95107C0.681496 8.19338 0.338913 9.26939 0.113787 10.6438C-0.0379288 11.5975-0.0379288 13.4072 0.113787 14.3609C0.338913 15.7353 0.681496 16.8113 1.29815 18.0536C2.52166 20.5235 4.47927 22.4799 6.95077 23.7027C8.19385 24.3189 9.27054 24.6613 10.6458 24.8863C11.6001 25.0379 13.4109 25.0379 14.3652 24.8863C15.7405 24.6613 16.8172 24.3189 18.0602 23.7027C20.5317 22.4799 22.4894 20.5235 23.7129 18.0536C24.168 17.139 24.3785 16.5765 24.6183 15.6766C24.9266 14.5027 25 13.862 25 12.5023C25 11.1426 24.9266 10.5019 24.6183 9.32808C24.3785 8.42814 24.168 7.86568 23.7129 6.95107C22.4894 4.48112 20.5317 2.52473 18.0602 1.30199C16.8172 0.685725 15.716 0.338466 14.3897 0.128154C13.6703 0.015661 12.065-0.0381397 11.3799 0.030334ZM13.362 2.52473C14.3065 2.61277 15.0896 2.78885 15.9313 3.10187C17.3212 3.62031 18.5448 4.40287 19.5774 5.43486C22.3474 8.20316 23.2577 12.3067 21.9119 15.926C21.3931 17.3151 20.61 18.5378 19.5774 19.5698C16.8074 22.3381 12.7013 23.2478 9.07968 21.9028C6.63755 20.9931 4.68972 19.2421 3.53472 16.9287C2.13503 14.1115 2.13503 10.8932 3.53472 8.07599C5.37488 4.37841 9.32438 2.14813 13.362 2.52473Z" fill="#000000" fill-rule="nonzero" opacity="1" stroke="none"/>
<path d="M14.4142 8.10534C12.0308 9.12755 10.0585 9.99326 10.0242 10.0226C9.98018 10.0666 6.49073 18.1172 6.28518 18.6503C6.25092 18.7481 6.25581 18.753 6.35369 18.7188C6.88714 18.5133 14.9427 15.0261 14.9868 14.9821C15.0504 14.9136 18.7944 6.23699 18.7552 6.24188C18.7503 6.24188 16.7976 7.08312 14.4142 8.10534ZM13.0928 11.4165C13.9688 11.8518 13.9639 13.1479 13.0781 13.5979C12.3293 13.9794 11.4631 13.5686 11.2869 12.7469C11.1499 12.1062 11.5463 11.4752 12.2021 11.2991C12.4957 11.216 12.7551 11.2502 13.0928 11.4165Z" fill="#000000" fill-rule="nonzero" opacity="1" stroke="none"/>
</g>
</g>
</svg>
