<?xml version="1.0" encoding="UTF-8" standalone="no"?>
<!DOCTYPE svg PUBLIC "-//W3C//DTD SVG 1.1//EN" "http://www.w3.org/Graphics/SVG/1.1/DTD/svg11.dtd">
<!-- Created with Vectornator (http://vectornator.io/) -->
<svg height="100%" stroke-miterlimit="10" style="fill-rule:nonzero;clip-rule:evenodd;stroke-linecap:round;stroke-linejoin:round;" version="1.1" viewBox="0 0 25 25" width="100%" xml:space="preserve" xmlns="http://www.w3.org/2000/svg" xmlns:vectornator="http://vectornator.io" xmlns:xlink="http://www.w3.org/1999/xlink">
<defs/>
<clipPath id="ArtboardFrame">
<rect height="25" width="25" x="0" y="0"/>
</clipPath>
<g clip-path="url(#ArtboardFrame)" id="Untitled" vectornator:layerName="Untitled">
<g opacity="1">
<path d="M13.187 0.0346793C15.1103 0.319559 16.6792 1.34862 17.6089 2.94162C17.9401 3.51138 18.0795 3.84859 18.2538 4.47648C18.3701 4.9009 18.3875 5.10438 18.3875 5.95902C18.3875 7.15087 18.2887 7.59272 17.8064 8.57527C16.5339 11.1799 13.6228 12.4648 10.822 11.6508C9.27058 11.2031 7.92832 10.0985 7.21942 8.69155C6.76619 7.79621 6.62092 7.22064 6.58025 6.16251C6.54538 5.15089 6.65578 4.49974 7.00442 3.67998C7.67265 2.09861 8.89288 0.935831 10.4908 0.354443C11.2636 0.0695626 12.4664-0.0699705 13.187 0.0346793ZM11.3566 1.3428C9.70056 1.73815 8.37574 3.03464 7.88764 4.73811C7.70751 5.37182 7.70751 6.49971 7.88764 7.15668C8.01548 7.63342 8.32344 8.2962 8.61397 8.7148C9.02653 9.31945 9.82259 9.9706 10.5373 10.2904C11.252 10.6043 11.5774 10.6683 12.5187 10.6625C13.338 10.6625 13.4252 10.6508 13.9423 10.4764C15.4938 9.95897 16.6675 8.72062 17.0917 7.15668C17.266 6.51134 17.2718 5.37182 17.0975 4.75555C16.6733 3.28464 15.8134 2.2614 14.4537 1.6335C13.4833 1.18001 12.4432 1.08118 11.3566 1.3428Z" fill="#000000" fill-rule="nonzero" opacity="1" stroke="none"/>
<path d="M14.7849 13.145C20.3863 13.7147 24.6862 18.2321 24.9651 23.8483L25 24.5867L24.7966 24.7902L24.5874 24.9995L12.5536 24.9995C-0.677254 24.9995 0.275692 25.0286 0.0839411 24.6507C-0.0206506 24.453-0.0264612 23.9995 0.0606985 23.2088C0.566225 18.5344 3.84343 14.6857 8.32925 13.488C9.52043 13.1682 9.95042 13.1275 12.1991 13.1101C13.3322 13.0985 14.4943 13.1159 14.7849 13.145ZM9.82259 14.395C6.4989 14.8833 3.73884 16.8717 2.23388 19.8716C1.69349 20.9472 1.3158 22.2553 1.24026 23.3251L1.19959 23.8367L12.4897 23.8367L23.7798 23.8367L23.7391 23.3309C23.6926 22.6681 23.5241 21.8891 23.2684 21.1158C22.3736 18.4414 20.2876 16.1973 17.6786 15.0984C16.7314 14.6973 16.1852 14.5519 14.8139 14.3426C14.7326 14.3252 13.7157 14.3136 12.5536 14.3078C10.9092 14.3019 10.3049 14.3194 9.82259 14.395Z" fill="#000000" fill-rule="nonzero" opacity="1" stroke="none"/>
</g>
</g>
</svg>
