<?xml version="1.0" encoding="UTF-8" standalone="no"?>
<!DOCTYPE svg PUBLIC "-//W3C//DTD SVG 1.1//EN" "http://www.w3.org/Graphics/SVG/1.1/DTD/svg11.dtd">
<!-- Created with Vectornator (http://vectornator.io/) -->
<svg height="100%" stroke-miterlimit="10" style="fill-rule:nonzero;clip-rule:evenodd;stroke-linecap:round;stroke-linejoin:round;" version="1.1" viewBox="0 0 25 25" width="100%" xml:space="preserve" xmlns="http://www.w3.org/2000/svg" xmlns:vectornator="http://vectornator.io" xmlns:xlink="http://www.w3.org/1999/xlink">
<defs/>
<clipPath id="ArtboardFrame">
<rect height="25" width="25" x="0" y="0"/>
</clipPath>
<g clip-path="url(#ArtboardFrame)" id="Untitled" vectornator:layerName="Untitled">
<g opacity="1">
<path d="M7.05187 0.0633527C2.84808 0.533649 0.73252 2.52967 0.103865 6.62563C0.00546657 7.23264 0 7.692 0 12.5043C0 17.2565 0.0109331 17.7815 0.0983982 18.3557C0.721587 22.3696 2.66222 24.3055 6.66921 24.9016C7.26507 24.9891 7.80626 25 12.5184 25C18.1982 25 18.1763 25 19.5375 24.6664C22.4293 23.95 24.113 22.1728 24.7307 19.176C24.9986 17.8963 25.015 17.4042 24.9931 12.1051C24.9713 6.69672 24.9767 6.80062 24.6269 5.38426C23.9545 2.67733 22.2708 1.00941 19.543 0.342249C18.1818 0.0141356 18.2747 0.0141356 12.7644 0.00319851C8.82304-0.00773862 7.56026 0.00866707 7.05187 0.0633527ZM15.6617 3.83666L15.6617 5.94206L12.4911 5.94206L9.3205 5.94206L9.3205 3.83666L9.3205 1.73126L12.4911 1.73126L15.6617 1.73126L15.6617 3.83666ZM7.57119 3.864L7.57119 5.94206L4.78325 5.94206C3.25261 5.94206 1.9953 5.93112 1.9953 5.92018C1.9953 5.83816 2.29049 4.97412 2.41076 4.70616C2.88635 3.63432 3.7774 2.7867 4.90898 2.33281C5.6087 2.05391 6.72388 1.80782 7.3416 1.79142L7.57119 1.78595L7.57119 3.864ZM18.2857 1.86798C20.8058 2.25078 22.1779 3.33355 22.8502 5.45536C22.9268 5.69597 22.9869 5.90378 22.9869 5.92018C22.9869 5.93112 21.7351 5.94206 20.199 5.94206L17.411 5.94206L17.411 3.864L17.411 1.78595L17.5914 1.78595C17.6843 1.78595 18.0014 1.82423 18.2857 1.86798ZM23.2438 12.734C23.222 18.137 23.2274 18.1151 22.9377 19.2416C22.4239 21.2431 21.2267 22.4407 19.2259 22.9548C18.0779 23.2501 18.0506 23.2501 12.5458 23.2501C7.10654 23.2501 6.93161 23.2446 5.86563 22.9766C3.77193 22.4626 2.57475 21.2868 2.0445 19.2416C1.76023 18.137 1.76023 18.1807 1.73837 12.7614L1.7165 7.692L12.4911 7.692L23.2657 7.692L23.2438 12.734Z" fill="#000000" fill-rule="nonzero" opacity="1" stroke="none"/>
<path d="M10.7691 11.1591C10.1459 11.3559 9.60476 11.8262 9.32596 12.4059C9.03623 13.0293 8.9925 13.3957 8.9925 15.3863C8.9925 16.7479 9.01437 17.2729 9.0745 17.5573C9.47356 19.4549 11.2502 20.1767 13.0596 19.1869C13.7265 18.8205 15.607 17.7213 15.8858 17.5299C16.7714 16.9339 17.258 15.9659 17.1322 15.0472C17.0502 14.4347 16.6184 13.7348 16.0553 13.3137C15.6672 13.0238 13.1963 11.5856 12.6988 11.3614C12.5075 11.2739 12.2232 11.1755 12.0647 11.1427C11.6875 11.0661 11.0479 11.0716 10.7691 11.1591ZM12.2287 13.0949C13.2236 13.609 14.9292 14.6316 15.1315 14.8394C15.4048 15.1238 15.4594 15.3261 15.3337 15.605C15.2845 15.7253 15.1479 15.8948 15.0385 15.9823C14.7324 16.2394 12.1084 17.7323 11.7859 17.8417C11.2721 18.0057 10.9495 17.8198 10.7965 17.2675C10.7637 17.1581 10.7418 16.3433 10.7418 15.3699C10.7418 14.0191 10.7582 13.6145 10.8238 13.3957C11.0151 12.7504 11.3978 12.6629 12.2287 13.0949Z" fill="#000000" fill-rule="nonzero" opacity="1" stroke="none"/>
</g>
</g>
</svg>
