<?xml version="1.0" encoding="UTF-8" standalone="no"?>
<!DOCTYPE svg PUBLIC "-//W3C//DTD SVG 1.1//EN" "http://www.w3.org/Graphics/SVG/1.1/DTD/svg11.dtd">
<!-- Created with Vectornator (http://vectornator.io/) -->
<svg height="100%" stroke-miterlimit="10" style="fill-rule:nonzero;clip-rule:evenodd;stroke-linecap:round;stroke-linejoin:round;" version="1.1" viewBox="0 0 926 428" width="100%" xml:space="preserve" xmlns="http://www.w3.org/2000/svg" xmlns:vectornator="http://vectornator.io" xmlns:xlink="http://www.w3.org/1999/xlink">
<defs>
<clipPath id="TextBounds">
<rect height="202.763" width="546.363" x="464.051" y="23.7752"/>
</clipPath>
<clipPath id="TextBounds_2">
<rect height="246.574" width="462.01" x="471.836" y="192.834"/>
</clipPath>
</defs>
<g id="Layer-1" vectornator:layerName="Layer 1">
<path d="M18.106 1.13243e-14L409.894 1.13243e-14C419.894 1.13243e-14 428 8.00776 428 17.8858L428 410.114C428 419.992 419.894 428 409.894 428L18.106 428C8.10632 428 0 419.992 0 410.114L0 17.8858C0 8.00776 8.10632 1.13243e-14 18.106 1.13243e-14Z" fill="#4c7e3d" fill-rule="nonzero" opacity="1" stroke="#ffffff" stroke-linecap="butt" stroke-linejoin="round" stroke-opacity="0" stroke-width="40"/>
<path d="M46.2663 39.586L364.626 39.586L364.626 375.519L46.2663 375.519L46.2663 39.586Z" fill="#fdfdfd" fill-rule="nonzero" opacity="1" stroke="#ffffff" stroke-linecap="butt" stroke-linejoin="round" stroke-opacity="0" stroke-width="40"/>
<g opacity="1">
<path d="M6.24699 212.05L6.24699 419.55L213.747 419.55L421.247 419.55L421.247 212.05L421.247 4.54991L213.747 4.54991L6.24699 4.54991L6.24699 212.05ZM232.907 61.5898C270.423 66.6528 305.947 88.9798 327.112 120.52C336.989 135.377 344.957 154.965 348.194 172.312C350.601 184.928 350.352 211.488 347.779 223.357C337.736 270.252 307.109 306.523 262.87 324.119C255.4 327.024 243.531 330.178 233.571 331.755C222.615 333.581 199.043 332.917 187.34 330.51C171.902 327.356 153.559 320.052 140.694 311.752L136.212 308.93L127.331 327.771C122.434 338.146 117.786 347.276 116.956 348.189C115.213 350.015 111.478 350.181 109.901 348.604C109.237 347.94 105.419 339.806 101.435 330.427L94.1308 313.412L76.2858 306.938C58.6068 300.547 56.6148 299.634 56.3658 297.227C55.7018 292.413 55.3698 292.662 77.6968 281.789C89.4828 276.062 99.2768 271.248 99.4428 270.999C99.6088 270.833 99.3598 270.252 98.8618 269.671C96.8698 267.181 91.6408 257.221 88.4038 249.502C81.0998 232.321 77.9458 216.385 77.9458 196.216C77.9458 152.89 98.0318 113.05 132.892 87.1538C150.073 74.4548 172.068 65.1588 192.403 61.9218C201.201 60.5938 224.109 60.3448 232.907 61.5898Z" fill="#4c7e3d" fill-rule="nonzero" opacity="1" stroke="none"/>
<path d="M204.936 82.3398C194.312 83.0868 188.004 84.3318 177.961 87.6518C137.872 100.766 108.075 135.211 100.688 176.877C98.8618 187.252 98.8618 206.176 100.771 216.634C102.348 225.681 106.83 239.708 110.482 246.929C113.221 252.407 118.616 261.537 119.197 261.537C119.363 261.537 127.912 257.47 138.287 252.407C148.579 247.427 157.958 243.277 159.037 243.277C161.361 243.277 164.266 246.016 164.266 248.174C164.266 249.087 160.116 258.466 155.136 269.09C150.073 279.714 146.089 288.844 146.338 289.425C147.002 291.168 161.859 299.551 170.408 303.037C184.767 308.93 198.047 311.503 214.066 311.503C244.195 311.503 271.668 300.464 293.248 279.797C318.646 255.395 330.764 223.855 328.523 188.331C326.531 158.368 312.836 130.646 289.845 110.311C266.937 90.0588 236.393 80.0158 204.936 82.3398ZM209.833 130.065C212.323 131.808 214.066 135.958 213.485 138.863C212.24 145.337 203.857 147.661 199.043 142.93C197.134 141.021 196.636 139.776 196.636 137.037C196.636 130.397 204.438 126.33 209.833 130.065ZM236.31 154.052C238.717 161.854 240.626 168.66 240.626 169.158C240.626 169.656 239.049 170.652 237.14 171.316C233.986 172.312 233.571 172.727 233.737 174.885C233.82 176.213 234.152 181.359 234.484 186.422C234.982 195.303 235.148 196.05 242.784 216.966C247.1 228.752 250.42 238.712 250.254 239.044C249.756 239.791 242.286 242.779 241.954 242.364C240.626 240.787 226.516 213.314 224.856 209.081L222.698 203.52L216.722 209.496C211.576 214.725 210.663 216.053 209.833 219.871C208.92 224.27 208.92 224.436 212.821 232.653C216.307 240.123 216.639 241.119 215.477 242.198C213.651 244.024 211.991 243.111 209.252 238.629C206.596 234.479 206.264 234.562 205.351 239.376C204.77 242.198 204.521 242.53 202.529 242.115C201.367 241.949 198.96 241.534 197.217 241.202C194.561 240.787 194.229 240.455 194.561 238.878C194.81 237.882 195.889 232.57 196.968 227.175L198.96 217.215L191.822 202.856C185.597 190.406 184.352 188.497 182.941 188.829C181.696 189.161 180.866 188.497 179.372 185.924C178.293 184.015 177.546 182.438 177.712 182.272C177.878 182.106 181.862 179.616 186.593 176.711L195.225 171.399L198.213 162.767L201.201 154.052L207.26 149.902L213.402 145.752L216.39 147.495C218.05 148.491 220.706 151.064 222.283 153.305C223.777 155.546 224.773 156.459 224.441 155.38C222.283 148.408 220.789 142.515 221.038 142.183C221.868 141.436 231.164 138.946 231.579 139.444C231.828 139.693 233.986 146.333 236.31 154.052Z" fill="#4c7e3d" fill-rule="nonzero" opacity="1" stroke="none"/>
<path d="M203.123 177.19C201.048 181.008 200.384 181.506 194.906 183.498L188.93 185.656L194.74 197.276L200.55 208.896L205.53 199.932C208.269 194.952 211.091 190.055 211.755 189.059C212.419 188.063 212.917 186.403 212.917 185.49C212.917 183.996 206.692 173.04 205.779 173.04C205.613 173.04 204.451 174.866 203.123 177.19Z" fill="#4c7e3d" fill-rule="nonzero" opacity="1" stroke="none"/>
<path d="M110.495 278.035C91.405 287.414 75.635 295.133 75.469 295.299C75.303 295.465 80.283 297.374 86.591 299.615C92.816 301.773 98.958 304.097 100.12 304.678C101.78 305.508 103.357 308.496 107.507 318.207C110.495 325.096 113.068 330.74 113.317 330.74C113.649 330.74 144.857 265.668 146.351 261.767C146.517 261.352 146.351 261.02 145.936 261.103C145.604 261.103 129.585 268.739 110.495 278.035Z" fill="#4c7e3d" fill-rule="nonzero" opacity="1" stroke="none"/>
</g>
<g fill="#4c7e3d" opacity="1" stroke="none">
<path clip-path="url(#TextBounds)" d="M483.951 137.775L483.951 39.2152L465.071 39.2152L465.071 23.8552L519.151 23.8552L519.151 39.2152L500.271 39.2152L500.271 137.775L483.951 137.775Z"/>
<path clip-path="url(#TextBounds)" d="M544.671 39.2152L544.671 74.7352L553.951 74.7352C556.831 74.7352 559.124 74.3352 560.831 73.5352C562.537 72.7352 563.871 71.5885 564.831 70.0952C565.684 68.6018 566.271 66.7618 566.591 64.5752C566.911 62.3885 567.071 59.8552 567.071 56.9752C567.071 54.0952 566.911 51.5618 566.591 49.3752C566.271 47.1885 565.631 45.2952 564.671 43.6952C562.644 40.7085 558.804 39.2152 553.151 39.2152L544.671 39.2152ZM528.351 137.775L528.351 23.8552L554.591 23.8552C573.791 23.8552 583.391 35.0018 583.391 57.2952C583.391 64.0152 582.351 69.7218 580.271 74.4152C578.191 79.1085 574.537 82.8952 569.311 85.7752L586.911 137.775L569.631 137.775L554.431 89.1352L544.671 89.1352L544.671 137.775L528.351 137.775Z"/>
<path clip-path="url(#TextBounds)" d="M631.471 97.9352L623.471 56.6552L623.151 56.6552L615.151 97.9352L631.471 97.9352ZM591.151 137.775L616.591 23.8552L630.191 23.8552L655.631 137.775L639.311 137.775L634.511 113.295L612.271 113.295L607.471 137.775L591.151 137.775Z"/>
<path clip-path="url(#TextBounds)" d="M666.111 137.775L666.111 23.8552L682.431 23.8552L682.431 137.775L666.111 137.775Z"/>
<path clip-path="url(#TextBounds)" d="M700.271 137.775L700.271 23.8552L716.591 23.8552L716.591 121.455L748.911 121.455L748.911 137.775L700.271 137.775Z"/>
<path clip-path="url(#TextBounds)" d="M761.951 137.775L761.951 23.8552L778.271 23.8552L778.271 137.775L761.951 137.775Z"/>
<path clip-path="url(#TextBounds)" d="M806.831 137.775L806.831 39.2152L787.951 39.2152L787.951 23.8552L842.031 23.8552L842.031 39.2152L823.151 39.2152L823.151 137.775L806.831 137.775Z"/>
<path clip-path="url(#TextBounds)" d="M866.431 137.775L866.431 89.6152L844.031 23.8552L861.311 23.8552L874.431 69.1352L874.751 69.1352L887.871 23.8552L905.151 23.8552L882.751 89.6152L882.751 137.775L866.431 137.775Z"/>
</g>
<g fill="#4c7e3d" opacity="1" stroke="none">
<path clip-path="url(#TextBounds_2)" d="M479.716 240.629C480.669 242.279 481.907 243.507 483.429 244.314C484.95 245.121 486.683 245.524 488.626 245.524C489.836 245.524 490.973 245.341 492.036 244.974C493.099 244.607 494.025 244.094 494.814 243.434C495.602 242.774 496.225 241.976 496.684 241.041C497.142 240.106 497.371 239.052 497.371 237.879C497.371 236.522 497.087 235.404 496.519 234.524C495.95 233.644 495.189 232.92 494.236 232.351C493.283 231.783 492.21 231.297 491.019 230.894C489.827 230.491 488.599 230.087 487.334 229.684C486.069 229.281 484.84 228.822 483.649 228.309C482.457 227.796 481.384 227.126 480.431 226.301C479.478 225.476 478.717 224.441 478.149 223.194C477.58 221.947 477.296 220.407 477.296 218.574C477.296 216.851 477.635 215.32 478.314 213.981C478.992 212.643 479.909 211.525 481.064 210.626C482.219 209.728 483.548 209.05 485.051 208.591C486.554 208.133 488.131 207.904 489.781 207.904C491.908 207.904 493.879 208.28 495.694 209.031C497.509 209.783 499.076 211.039 500.396 212.799L497.261 215.054C496.344 213.771 495.272 212.808 494.044 212.166C492.815 211.525 491.358 211.204 489.671 211.204C488.498 211.204 487.379 211.36 486.316 211.671C485.253 211.983 484.327 212.441 483.539 213.046C482.75 213.651 482.118 214.412 481.641 215.329C481.164 216.246 480.926 217.327 480.926 218.574C480.926 220.517 481.421 222.011 482.411 223.056C483.401 224.101 484.639 224.926 486.124 225.531C487.609 226.136 489.222 226.668 490.964 227.126C492.705 227.585 494.319 228.199 495.804 228.969C497.289 229.739 498.526 230.811 499.516 232.186C500.506 233.561 501.001 235.459 501.001 237.879C501.001 239.639 500.671 241.197 500.011 242.554C499.351 243.911 498.462 245.056 497.344 245.991C496.225 246.926 494.933 247.632 493.466 248.109C491.999 248.586 490.478 248.824 488.901 248.824C486.334 248.824 483.969 248.375 481.806 247.476C479.643 246.578 477.791 245.066 476.251 242.939L479.716 240.629Z"/>
<path clip-path="url(#TextBounds_2)" d="M508.316 206.254L511.616 206.254L511.616 226.879L511.726 226.879C512.386 225.486 513.486 224.285 515.026 223.276C516.566 222.268 518.363 221.764 520.416 221.764C522.396 221.764 524.009 222.076 525.256 222.699C526.503 223.322 527.484 224.138 528.199 225.146C528.914 226.155 529.409 227.319 529.684 228.639C529.959 229.959 530.096 231.316 530.096 232.709L530.096 247.834L526.796 247.834L526.796 232.874C526.796 231.847 526.704 230.848 526.521 229.876C526.338 228.905 526.017 228.034 525.559 227.264C525.1 226.494 524.459 225.88 523.634 225.421C522.809 224.963 521.736 224.734 520.416 224.734C519.206 224.734 518.06 224.945 516.979 225.366C515.897 225.788 514.962 226.43 514.174 227.291C513.385 228.153 512.762 229.235 512.304 230.536C511.845 231.838 511.616 233.369 511.616 235.129L511.616 247.834L508.316 247.834L508.316 206.254Z"/>
<path clip-path="url(#TextBounds_2)" d="M558.641 237.164C558.641 238.411 558.65 239.529 558.669 240.519C558.687 241.509 558.714 242.426 558.751 243.269C558.788 244.112 558.834 244.901 558.889 245.634C558.944 246.367 559.026 247.101 559.136 247.834L556.056 247.834C555.836 246.587 555.726 245.212 555.726 243.709L555.616 243.709C554.663 245.359 553.48 246.569 552.069 247.339C550.657 248.109 548.869 248.494 546.706 248.494C545.606 248.494 544.524 248.356 543.461 248.081C542.398 247.806 541.444 247.366 540.601 246.761C539.758 246.156 539.07 245.377 538.539 244.424C538.007 243.471 537.741 242.316 537.741 240.959C537.741 239.016 538.236 237.476 539.226 236.339C540.216 235.202 541.435 234.35 542.884 233.781C544.332 233.213 545.872 232.846 547.504 232.681C549.135 232.516 550.574 232.434 551.821 232.434L555.671 232.434L555.671 230.894C555.671 228.694 554.993 227.117 553.636 226.164C552.279 225.211 550.574 224.734 548.521 224.734C545.588 224.734 543.003 225.687 540.766 227.594L538.841 225.339C540.051 224.166 541.554 223.276 543.351 222.671C545.148 222.066 546.871 221.764 548.521 221.764C551.601 221.764 554.058 222.488 555.891 223.936C557.724 225.385 558.641 227.722 558.641 230.949L558.641 237.164ZM552.041 235.074C550.648 235.074 549.3 235.166 547.999 235.349C546.697 235.532 545.524 235.844 544.479 236.284C543.434 236.724 542.599 237.311 541.976 238.044C541.353 238.777 541.041 239.694 541.041 240.794C541.041 241.564 541.215 242.251 541.564 242.856C541.912 243.461 542.361 243.956 542.911 244.341C543.461 244.726 544.075 245.02 544.754 245.221C545.432 245.423 546.119 245.524 546.816 245.524C548.576 245.524 550.024 245.267 551.161 244.754C552.298 244.241 553.205 243.571 553.884 242.746C554.562 241.921 555.029 240.986 555.286 239.941C555.543 238.896 555.671 237.842 555.671 236.779L555.671 235.074L552.041 235.074Z"/>
<path clip-path="url(#TextBounds_2)" d="M567.441 229.574C567.441 229.097 567.423 228.52 567.386 227.841C567.349 227.163 567.322 226.476 567.304 225.779C567.285 225.082 567.258 224.431 567.221 223.826C567.184 223.221 567.166 222.754 567.166 222.424L570.466 222.424C570.503 223.377 570.53 224.294 570.549 225.174C570.567 226.054 570.613 226.622 570.686 226.879C571.529 225.376 572.611 224.147 573.931 223.194C575.251 222.241 576.864 221.764 578.771 221.764C579.101 221.764 579.422 221.791 579.734 221.846C580.045 221.901 580.366 221.966 580.696 222.039L580.311 225.284C579.871 225.137 579.449 225.064 579.046 225.064C577.616 225.064 576.379 225.293 575.334 225.751C574.289 226.21 573.427 226.842 572.749 227.649C572.07 228.456 571.566 229.4 571.236 230.481C570.906 231.563 570.741 232.727 570.741 233.974L570.741 247.834L567.441 247.834L567.441 229.574Z"/>
<path clip-path="url(#TextBounds_2)" d="M607.206 243.049C605.923 244.992 604.337 246.386 602.449 247.229C600.56 248.072 598.479 248.494 596.206 248.494C594.263 248.494 592.503 248.164 590.926 247.504C589.349 246.844 587.993 245.918 586.856 244.726C585.719 243.535 584.849 242.123 584.244 240.491C583.639 238.86 583.336 237.054 583.336 235.074C583.336 233.167 583.648 231.407 584.271 229.794C584.894 228.181 585.774 226.778 586.911 225.586C588.048 224.395 589.386 223.46 590.926 222.781C592.466 222.103 594.171 221.764 596.041 221.764C597.984 221.764 599.699 222.103 601.184 222.781C602.669 223.46 603.915 224.358 604.924 225.476C605.932 226.595 606.693 227.869 607.206 229.299C607.719 230.729 607.976 232.177 607.976 233.644L607.976 235.954L586.636 235.954C586.636 236.651 586.774 237.54 587.049 238.621C587.324 239.703 587.828 240.757 588.561 241.784C589.294 242.811 590.275 243.691 591.504 244.424C592.732 245.157 594.318 245.524 596.261 245.524C597.948 245.524 599.579 245.121 601.156 244.314C602.733 243.507 603.943 242.407 604.786 241.014L607.206 243.049ZM604.676 232.984C604.676 231.847 604.447 230.784 603.989 229.794C603.53 228.804 602.907 227.933 602.119 227.181C601.33 226.43 600.395 225.834 599.314 225.394C598.232 224.954 597.086 224.734 595.876 224.734C594.079 224.734 592.585 225.101 591.394 225.834C590.202 226.567 589.258 227.411 588.561 228.364C587.864 229.317 587.369 230.243 587.076 231.141C586.783 232.04 586.636 232.654 586.636 232.984L604.676 232.984Z"/>
<path clip-path="url(#TextBounds_2)" d="M639.216 231.059L624.916 208.894L629.261 208.894L641.031 227.374L653.076 208.894L657.146 208.894L642.846 231.059L642.846 247.834L639.216 247.834L639.216 231.059Z"/>
<path clip-path="url(#TextBounds_2)" d="M654.726 235.129C654.726 233.186 655.056 231.398 655.716 229.766C656.376 228.135 657.293 226.723 658.466 225.531C659.639 224.34 661.051 223.414 662.701 222.754C664.351 222.094 666.148 221.764 668.091 221.764C670.034 221.764 671.822 222.094 673.454 222.754C675.085 223.414 676.497 224.34 677.689 225.531C678.88 226.723 679.806 228.135 680.466 229.766C681.126 231.398 681.456 233.186 681.456 235.129C681.456 237.072 681.126 238.86 680.466 240.491C679.806 242.123 678.88 243.535 677.689 244.726C676.497 245.918 675.085 246.844 673.454 247.504C671.822 248.164 670.034 248.494 668.091 248.494C666.148 248.494 664.351 248.164 662.701 247.504C661.051 246.844 659.639 245.918 658.466 244.726C657.293 243.535 656.376 242.123 655.716 240.491C655.056 238.86 654.726 237.072 654.726 235.129ZM658.026 235.129C658.026 236.559 658.255 237.906 658.714 239.171C659.172 240.436 659.841 241.536 660.721 242.471C661.601 243.406 662.664 244.149 663.911 244.699C665.158 245.249 666.551 245.524 668.091 245.524C669.631 245.524 671.024 245.249 672.271 244.699C673.518 244.149 674.581 243.406 675.461 242.471C676.341 241.536 677.01 240.436 677.469 239.171C677.927 237.906 678.156 236.559 678.156 235.129C678.156 233.699 677.927 232.351 677.469 231.086C677.01 229.821 676.341 228.721 675.461 227.786C674.581 226.851 673.518 226.109 672.271 225.559C671.024 225.009 669.631 224.734 668.091 224.734C666.551 224.734 665.158 225.009 663.911 225.559C662.664 226.109 661.601 226.851 660.721 227.786C659.841 228.721 659.172 229.821 658.714 231.086C658.255 232.351 658.026 233.699 658.026 235.129Z"/>
<path clip-path="url(#TextBounds_2)" d="M710.331 240.684C710.331 241.161 710.349 241.738 710.386 242.416C710.423 243.095 710.45 243.782 710.469 244.479C710.487 245.176 710.514 245.826 710.551 246.431C710.588 247.036 710.606 247.504 710.606 247.834L707.306 247.834C707.269 246.881 707.242 245.964 707.224 245.084C707.205 244.204 707.159 243.636 707.086 243.379L706.921 243.379C706.261 244.772 705.161 245.973 703.621 246.981C702.081 247.99 700.284 248.494 698.231 248.494C696.251 248.494 694.629 248.182 693.364 247.559C692.099 246.936 691.109 246.12 690.394 245.111C689.679 244.103 689.193 242.939 688.936 241.619C688.679 240.299 688.551 238.942 688.551 237.549L688.551 222.424L691.851 222.424L691.851 237.384C691.851 238.411 691.943 239.41 692.126 240.381C692.309 241.353 692.63 242.224 693.089 242.994C693.547 243.764 694.189 244.378 695.014 244.836C695.839 245.295 696.911 245.524 698.231 245.524C699.441 245.524 700.587 245.313 701.669 244.891C702.75 244.47 703.685 243.828 704.474 242.966C705.262 242.105 705.885 241.023 706.344 239.721C706.802 238.42 707.031 236.889 707.031 235.129L707.031 222.424L710.331 222.424L710.331 240.684Z"/>
<path clip-path="url(#TextBounds_2)" d="M719.406 229.574C719.406 229.097 719.388 228.52 719.351 227.841C719.314 227.163 719.287 226.476 719.269 225.779C719.25 225.082 719.223 224.431 719.186 223.826C719.149 223.221 719.131 222.754 719.131 222.424L722.431 222.424C722.468 223.377 722.495 224.294 722.514 225.174C722.532 226.054 722.578 226.622 722.651 226.879C723.494 225.376 724.576 224.147 725.896 223.194C727.216 222.241 728.829 221.764 730.736 221.764C731.066 221.764 731.387 221.791 731.699 221.846C732.01 221.901 732.331 221.966 732.661 222.039L732.276 225.284C731.836 225.137 731.414 225.064 731.011 225.064C729.581 225.064 728.344 225.293 727.299 225.751C726.254 226.21 725.392 226.842 724.714 227.649C724.035 228.456 723.531 229.4 723.201 230.481C722.871 231.563 722.706 232.727 722.706 233.974L722.706 247.834L719.406 247.834L719.406 229.574Z"/>
<path clip-path="url(#TextBounds_2)" d="M478.671 285.894L483.346 285.894L507.051 319.994L507.161 319.994L507.161 285.894L510.791 285.894L510.791 324.834L506.116 324.834L482.411 290.734L482.301 290.734L482.301 324.834L478.671 324.834L478.671 285.894Z"/>
<path clip-path="url(#TextBounds_2)" d="M540.271 314.164C540.271 315.411 540.28 316.529 540.299 317.519C540.317 318.509 540.344 319.426 540.381 320.269C540.418 321.112 540.464 321.901 540.519 322.634C540.574 323.367 540.656 324.101 540.766 324.834L537.686 324.834C537.466 323.587 537.356 322.212 537.356 320.709L537.246 320.709C536.293 322.359 535.11 323.569 533.699 324.339C532.287 325.109 530.499 325.494 528.336 325.494C527.236 325.494 526.154 325.356 525.091 325.081C524.028 324.806 523.074 324.366 522.231 323.761C521.388 323.156 520.7 322.377 520.169 321.424C519.637 320.471 519.371 319.316 519.371 317.959C519.371 316.016 519.866 314.476 520.856 313.339C521.846 312.202 523.065 311.35 524.514 310.781C525.962 310.213 527.502 309.846 529.134 309.681C530.765 309.516 532.204 309.434 533.451 309.434L537.301 309.434L537.301 307.894C537.301 305.694 536.623 304.117 535.266 303.164C533.909 302.211 532.204 301.734 530.151 301.734C527.218 301.734 524.633 302.687 522.396 304.594L520.471 302.339C521.681 301.166 523.184 300.276 524.981 299.671C526.778 299.066 528.501 298.764 530.151 298.764C533.231 298.764 535.688 299.488 537.521 300.936C539.354 302.385 540.271 304.722 540.271 307.949L540.271 314.164ZM533.671 312.074C532.278 312.074 530.93 312.166 529.629 312.349C528.327 312.532 527.154 312.844 526.109 313.284C525.064 313.724 524.229 314.311 523.606 315.044C522.983 315.777 522.671 316.694 522.671 317.794C522.671 318.564 522.845 319.251 523.194 319.856C523.542 320.461 523.991 320.956 524.541 321.341C525.091 321.726 525.705 322.02 526.384 322.221C527.062 322.423 527.749 322.524 528.446 322.524C530.206 322.524 531.654 322.267 532.791 321.754C533.928 321.241 534.835 320.571 535.514 319.746C536.192 318.921 536.659 317.986 536.916 316.941C537.173 315.896 537.301 314.842 537.301 313.779L537.301 312.074L533.671 312.074Z"/>
<path clip-path="url(#TextBounds_2)" d="M545.496 299.424L549.236 299.424L557.706 321.259L565.956 299.424L569.311 299.424L559.301 324.834L555.891 324.834L545.496 299.424Z"/>
<path clip-path="url(#TextBounds_2)" d="M575.086 299.424L578.386 299.424L578.386 324.834L575.086 324.834L575.086 299.424ZM574.261 289.359C574.261 288.662 574.499 288.076 574.976 287.599C575.453 287.122 576.039 286.884 576.736 286.884C577.433 286.884 578.019 287.122 578.496 287.599C578.973 288.076 579.211 288.662 579.211 289.359C579.211 290.056 578.973 290.642 578.496 291.119C578.019 291.596 577.433 291.834 576.736 291.834C576.039 291.834 575.453 291.596 574.976 291.119C574.499 290.642 574.261 290.056 574.261 289.359Z"/>
<path clip-path="url(#TextBounds_2)" d="M613.256 323.184C613.256 326.337 612.798 328.886 611.881 330.829C610.964 332.772 609.819 334.276 608.444 335.339C607.069 336.402 605.593 337.117 604.016 337.484C602.439 337.851 601.009 338.034 599.726 338.034C598.443 338.034 597.187 337.915 595.959 337.676C594.73 337.438 593.566 337.09 592.466 336.631C591.366 336.173 590.367 335.614 589.469 334.954C588.57 334.294 587.791 333.542 587.131 332.699L589.716 330.279C590.889 331.929 592.356 333.139 594.116 333.909C595.876 334.679 597.746 335.064 599.726 335.064C601.413 335.064 602.834 334.844 603.989 334.404C605.144 333.964 606.097 333.386 606.849 332.671C607.6 331.956 608.187 331.168 608.609 330.306C609.03 329.445 609.342 328.583 609.544 327.721C609.745 326.86 609.864 326.044 609.901 325.274C609.938 324.504 609.956 323.881 609.956 323.404L609.956 319.884L609.846 319.884C608.893 321.424 607.6 322.634 605.969 323.514C604.337 324.394 602.421 324.834 600.221 324.834C598.351 324.834 596.591 324.495 594.941 323.816C593.291 323.138 591.852 322.203 590.624 321.011C589.395 319.82 588.424 318.436 587.709 316.859C586.994 315.282 586.636 313.596 586.636 311.799C586.636 310.002 586.994 308.316 587.709 306.739C588.424 305.162 589.395 303.787 590.624 302.614C591.852 301.441 593.291 300.506 594.941 299.809C596.591 299.112 598.351 298.764 600.221 298.764C602.421 298.764 604.337 299.204 605.969 300.084C607.6 300.964 608.893 302.174 609.846 303.714L609.956 303.714L609.956 299.424L613.256 299.424L613.256 323.184ZM610.066 311.799C610.066 310.406 609.8 309.095 609.269 307.866C608.737 306.638 608.022 305.575 607.124 304.676C606.225 303.778 605.162 303.063 603.934 302.531C602.705 302 601.394 301.734 600.001 301.734C598.608 301.734 597.297 302 596.069 302.531C594.84 303.063 593.777 303.778 592.879 304.676C591.98 305.575 591.265 306.638 590.734 307.866C590.202 309.095 589.936 310.406 589.936 311.799C589.936 313.192 590.202 314.503 590.734 315.731C591.265 316.96 591.98 318.023 592.879 318.921C593.777 319.82 594.84 320.535 596.069 321.066C597.297 321.598 598.608 321.864 600.001 321.864C601.394 321.864 602.705 321.598 603.934 321.066C605.162 320.535 606.225 319.82 607.124 318.921C608.022 318.023 608.737 316.96 609.269 315.731C609.8 314.503 610.066 313.192 610.066 311.799Z"/>
<path clip-path="url(#TextBounds_2)" d="M641.086 314.164C641.086 315.411 641.095 316.529 641.114 317.519C641.132 318.509 641.159 319.426 641.196 320.269C641.233 321.112 641.279 321.901 641.334 322.634C641.389 323.367 641.471 324.101 641.581 324.834L638.501 324.834C638.281 323.587 638.171 322.212 638.171 320.709L638.061 320.709C637.108 322.359 635.925 323.569 634.514 324.339C633.102 325.109 631.314 325.494 629.151 325.494C628.051 325.494 626.969 325.356 625.906 325.081C624.843 324.806 623.889 324.366 623.046 323.761C622.203 323.156 621.515 322.377 620.984 321.424C620.452 320.471 620.186 319.316 620.186 317.959C620.186 316.016 620.681 314.476 621.671 313.339C622.661 312.202 623.88 311.35 625.329 310.781C626.777 310.213 628.317 309.846 629.949 309.681C631.58 309.516 633.019 309.434 634.266 309.434L638.116 309.434L638.116 307.894C638.116 305.694 637.438 304.117 636.081 303.164C634.724 302.211 633.019 301.734 630.966 301.734C628.033 301.734 625.448 302.687 623.211 304.594L621.286 302.339C622.496 301.166 623.999 300.276 625.796 299.671C627.593 299.066 629.316 298.764 630.966 298.764C634.046 298.764 636.503 299.488 638.336 300.936C640.169 302.385 641.086 304.722 641.086 307.949L641.086 314.164ZM634.486 312.074C633.093 312.074 631.745 312.166 630.444 312.349C629.142 312.532 627.969 312.844 626.924 313.284C625.879 313.724 625.044 314.311 624.421 315.044C623.798 315.777 623.486 316.694 623.486 317.794C623.486 318.564 623.66 319.251 624.009 319.856C624.357 320.461 624.806 320.956 625.356 321.341C625.906 321.726 626.52 322.02 627.199 322.221C627.877 322.423 628.564 322.524 629.261 322.524C631.021 322.524 632.469 322.267 633.606 321.754C634.743 321.241 635.65 320.571 636.329 319.746C637.007 318.921 637.474 317.986 637.731 316.941C637.988 315.896 638.116 314.842 638.116 313.779L638.116 312.074L634.486 312.074Z"/>
<path clip-path="url(#TextBounds_2)" d="M662.316 302.394L655.056 302.394L655.056 318.949C655.056 320.086 655.368 320.966 655.991 321.589C656.614 322.212 657.476 322.524 658.576 322.524C659.199 322.524 659.832 322.441 660.474 322.276C661.115 322.111 661.729 321.901 662.316 321.644L662.591 324.614C661.968 324.834 661.253 325.036 660.446 325.219C659.639 325.402 658.924 325.494 658.301 325.494C657.128 325.494 656.119 325.32 655.276 324.971C654.433 324.623 653.754 324.156 653.241 323.569C652.728 322.982 652.352 322.295 652.114 321.506C651.875 320.718 651.756 319.866 651.756 318.949L651.756 302.394L646.256 302.394L646.256 299.424L651.756 299.424L651.756 292.109L655.056 292.109L655.056 299.424L662.316 299.424L662.316 302.394Z"/>
<path clip-path="url(#TextBounds_2)" d="M668.806 299.424L672.106 299.424L672.106 324.834L668.806 324.834L668.806 299.424ZM667.981 289.359C667.981 288.662 668.219 288.076 668.696 287.599C669.173 287.122 669.759 286.884 670.456 286.884C671.153 286.884 671.739 287.122 672.216 287.599C672.693 288.076 672.931 288.662 672.931 289.359C672.931 290.056 672.693 290.642 672.216 291.119C671.739 291.596 671.153 291.834 670.456 291.834C669.759 291.834 669.173 291.596 668.696 291.119C668.219 290.642 667.981 290.056 667.981 289.359Z"/>
<path clip-path="url(#TextBounds_2)" d="M680.026 312.129C680.026 310.186 680.356 308.398 681.016 306.766C681.676 305.135 682.593 303.723 683.766 302.531C684.939 301.34 686.351 300.414 688.001 299.754C689.651 299.094 691.448 298.764 693.391 298.764C695.334 298.764 697.122 299.094 698.754 299.754C700.385 300.414 701.797 301.34 702.989 302.531C704.18 303.723 705.106 305.135 705.766 306.766C706.426 308.398 706.756 310.186 706.756 312.129C706.756 314.072 706.426 315.86 705.766 317.491C705.106 319.123 704.18 320.535 702.989 321.726C701.797 322.918 700.385 323.844 698.754 324.504C697.122 325.164 695.334 325.494 693.391 325.494C691.448 325.494 689.651 325.164 688.001 324.504C686.351 323.844 684.939 322.918 683.766 321.726C682.593 320.535 681.676 319.123 681.016 317.491C680.356 315.86 680.026 314.072 680.026 312.129ZM683.326 312.129C683.326 313.559 683.555 314.906 684.014 316.171C684.472 317.436 685.141 318.536 686.021 319.471C686.901 320.406 687.964 321.149 689.211 321.699C690.458 322.249 691.851 322.524 693.391 322.524C694.931 322.524 696.324 322.249 697.571 321.699C698.818 321.149 699.881 320.406 700.761 319.471C701.641 318.536 702.31 317.436 702.769 316.171C703.227 314.906 703.456 313.559 703.456 312.129C703.456 310.699 703.227 309.351 702.769 308.086C702.31 306.821 701.641 305.721 700.761 304.786C699.881 303.851 698.818 303.109 697.571 302.559C696.324 302.009 694.931 301.734 693.391 301.734C691.851 301.734 690.458 302.009 689.211 302.559C687.964 303.109 686.901 303.851 686.021 304.786C685.141 305.721 684.472 306.821 684.014 308.086C683.555 309.351 683.326 310.699 683.326 312.129Z"/>
<path clip-path="url(#TextBounds_2)" d="M714.126 306.574C714.126 306.097 714.108 305.52 714.071 304.841C714.034 304.163 714.007 303.476 713.989 302.779C713.97 302.082 713.943 301.431 713.906 300.826C713.869 300.221 713.851 299.754 713.851 299.424L717.151 299.424C717.188 300.377 717.215 301.294 717.234 302.174C717.252 303.054 717.298 303.622 717.371 303.879L717.536 303.879C718.196 302.486 719.296 301.285 720.836 300.276C722.376 299.268 724.173 298.764 726.226 298.764C728.206 298.764 729.819 299.076 731.066 299.699C732.313 300.322 733.294 301.138 734.009 302.146C734.724 303.155 735.219 304.319 735.494 305.639C735.769 306.959 735.906 308.316 735.906 309.709L735.906 324.834L732.606 324.834L732.606 309.874C732.606 308.847 732.514 307.848 732.331 306.876C732.148 305.905 731.827 305.034 731.369 304.264C730.91 303.494 730.269 302.88 729.444 302.421C728.619 301.963 727.546 301.734 726.226 301.734C725.016 301.734 723.87 301.945 722.789 302.366C721.707 302.788 720.772 303.43 719.984 304.291C719.195 305.153 718.572 306.235 718.114 307.536C717.655 308.838 717.426 310.369 717.426 312.129L717.426 324.834L714.126 324.834L714.126 306.574Z"/>
<path clip-path="url(#TextBounds_2)" d="M478.671 362.894L502.486 362.894L502.486 366.194L482.301 366.194L482.301 380.054L501.221 380.054L501.221 383.354L482.301 383.354L482.301 398.534L503.366 398.534L503.366 401.834L478.671 401.834L478.671 362.894Z"/>
<path clip-path="url(#TextBounds_2)" d="M516.841 388.084L507.766 376.424L512.001 376.424L519.041 386.049L526.026 376.424L530.151 376.424L521.186 388.084L532.076 401.834L527.786 401.834L518.931 390.339L510.241 401.834L506.281 401.834L516.841 388.084Z"/>
<path clip-path="url(#TextBounds_2)" d="M536.091 376.424L539.391 376.424L539.391 380.879L539.501 380.879C540.014 379.999 540.656 379.238 541.426 378.596C542.196 377.955 543.03 377.423 543.929 377.001C544.827 376.58 545.771 376.268 546.761 376.066C547.751 375.865 548.723 375.764 549.676 375.764C551.619 375.764 553.407 376.094 555.039 376.754C556.67 377.414 558.082 378.34 559.274 379.531C560.465 380.723 561.391 382.135 562.051 383.766C562.711 385.398 563.041 387.186 563.041 389.129C563.041 391.072 562.711 392.86 562.051 394.491C561.391 396.123 560.465 397.535 559.274 398.726C558.082 399.918 556.67 400.844 555.039 401.504C553.407 402.164 551.619 402.494 549.676 402.494C548.723 402.494 547.751 402.393 546.761 402.191C545.771 401.99 544.827 401.678 543.929 401.256C543.03 400.835 542.196 400.303 541.426 399.661C540.656 399.02 540.014 398.259 539.501 397.379L539.391 397.379L539.391 414.374L536.091 414.374L536.091 376.424ZM539.061 389.129C539.061 390.559 539.336 391.906 539.886 393.171C540.436 394.436 541.188 395.536 542.141 396.471C543.094 397.406 544.213 398.149 545.496 398.699C546.779 399.249 548.173 399.524 549.676 399.524C551.216 399.524 552.609 399.249 553.856 398.699C555.103 398.149 556.166 397.406 557.046 396.471C557.926 395.536 558.595 394.436 559.054 393.171C559.512 391.906 559.741 390.559 559.741 389.129C559.741 387.699 559.512 386.351 559.054 385.086C558.595 383.821 557.926 382.721 557.046 381.786C556.166 380.851 555.103 380.109 553.856 379.559C552.609 379.009 551.216 378.734 549.676 378.734C548.173 378.734 546.779 379.009 545.496 379.559C544.213 380.109 543.094 380.851 542.141 381.786C541.188 382.721 540.436 383.821 539.886 385.086C539.336 386.351 539.061 387.699 539.061 389.129Z"/>
<path clip-path="url(#TextBounds_2)" d="M592.851 397.049C591.568 398.992 589.982 400.386 588.094 401.229C586.205 402.072 584.124 402.494 581.851 402.494C579.908 402.494 578.148 402.164 576.571 401.504C574.994 400.844 573.638 399.918 572.501 398.726C571.364 397.535 570.494 396.123 569.889 394.491C569.284 392.86 568.981 391.054 568.981 389.074C568.981 387.167 569.293 385.407 569.916 383.794C570.539 382.181 571.419 380.778 572.556 379.586C573.693 378.395 575.031 377.46 576.571 376.781C578.111 376.103 579.816 375.764 581.686 375.764C583.629 375.764 585.344 376.103 586.829 376.781C588.314 377.46 589.56 378.358 590.569 379.476C591.577 380.595 592.338 381.869 592.851 383.299C593.364 384.729 593.621 386.177 593.621 387.644L593.621 389.954L572.281 389.954C572.281 390.651 572.419 391.54 572.694 392.621C572.969 393.703 573.473 394.757 574.206 395.784C574.939 396.811 575.92 397.691 577.149 398.424C578.377 399.157 579.963 399.524 581.906 399.524C583.593 399.524 585.224 399.121 586.801 398.314C588.378 397.507 589.588 396.407 590.431 395.014L592.851 397.049ZM590.321 386.984C590.321 385.847 590.092 384.784 589.634 383.794C589.175 382.804 588.552 381.933 587.764 381.181C586.975 380.43 586.04 379.834 584.959 379.394C583.877 378.954 582.731 378.734 581.521 378.734C579.724 378.734 578.23 379.101 577.039 379.834C575.847 380.567 574.903 381.411 574.206 382.364C573.509 383.317 573.014 384.243 572.721 385.141C572.428 386.04 572.281 386.654 572.281 386.984L590.321 386.984Z"/>
<path clip-path="url(#TextBounds_2)" d="M600.991 383.574C600.991 383.097 600.973 382.52 600.936 381.841C600.899 381.163 600.872 380.476 600.854 379.779C600.835 379.082 600.808 378.431 600.771 377.826C600.734 377.221 600.716 376.754 600.716 376.424L604.016 376.424C604.053 377.377 604.08 378.294 604.099 379.174C604.117 380.054 604.163 380.622 604.236 380.879C605.079 379.376 606.161 378.147 607.481 377.194C608.801 376.241 610.414 375.764 612.321 375.764C612.651 375.764 612.972 375.791 613.284 375.846C613.595 375.901 613.916 375.966 614.246 376.039L613.861 379.284C613.421 379.137 612.999 379.064 612.596 379.064C611.166 379.064 609.929 379.293 608.884 379.751C607.839 380.21 606.977 380.842 606.299 381.649C605.62 382.456 605.116 383.4 604.786 384.481C604.456 385.563 604.291 386.727 604.291 387.974L604.291 401.834L600.991 401.834L600.991 383.574Z"/>
<path clip-path="url(#TextBounds_2)" d="M619.856 376.424L623.156 376.424L623.156 401.834L619.856 401.834L619.856 376.424ZM619.031 366.359C619.031 365.662 619.269 365.076 619.746 364.599C620.223 364.122 620.809 363.884 621.506 363.884C622.203 363.884 622.789 364.122 623.266 364.599C623.743 365.076 623.981 365.662 623.981 366.359C623.981 367.056 623.743 367.642 623.266 368.119C622.789 368.596 622.203 368.834 621.506 368.834C620.809 368.834 620.223 368.596 619.746 368.119C619.269 367.642 619.031 367.056 619.031 366.359Z"/>
<path clip-path="url(#TextBounds_2)" d="M654.946 397.049C653.663 398.992 652.077 400.386 650.189 401.229C648.3 402.072 646.219 402.494 643.946 402.494C642.003 402.494 640.243 402.164 638.666 401.504C637.089 400.844 635.733 399.918 634.596 398.726C633.459 397.535 632.589 396.123 631.984 394.491C631.379 392.86 631.076 391.054 631.076 389.074C631.076 387.167 631.388 385.407 632.011 383.794C632.634 382.181 633.514 380.778 634.651 379.586C635.788 378.395 637.126 377.46 638.666 376.781C640.206 376.103 641.911 375.764 643.781 375.764C645.724 375.764 647.439 376.103 648.924 376.781C650.409 377.46 651.655 378.358 652.664 379.476C653.672 380.595 654.433 381.869 654.946 383.299C655.459 384.729 655.716 386.177 655.716 387.644L655.716 389.954L634.376 389.954C634.376 390.651 634.514 391.54 634.789 392.621C635.064 393.703 635.568 394.757 636.301 395.784C637.034 396.811 638.015 397.691 639.244 398.424C640.472 399.157 642.058 399.524 644.001 399.524C645.688 399.524 647.319 399.121 648.896 398.314C650.473 397.507 651.683 396.407 652.526 395.014L654.946 397.049ZM652.416 386.984C652.416 385.847 652.187 384.784 651.729 383.794C651.27 382.804 650.647 381.933 649.859 381.181C649.07 380.43 648.135 379.834 647.054 379.394C645.972 378.954 644.826 378.734 643.616 378.734C641.819 378.734 640.325 379.101 639.134 379.834C637.942 380.567 636.998 381.411 636.301 382.364C635.604 383.317 635.109 384.243 634.816 385.141C634.523 386.04 634.376 386.654 634.376 386.984L652.416 386.984Z"/>
<path clip-path="url(#TextBounds_2)" d="M663.086 383.574C663.086 383.097 663.068 382.52 663.031 381.841C662.994 381.163 662.967 380.476 662.949 379.779C662.93 379.082 662.903 378.431 662.866 377.826C662.829 377.221 662.811 376.754 662.811 376.424L666.111 376.424C666.148 377.377 666.175 378.294 666.194 379.174C666.212 380.054 666.258 380.622 666.331 380.879L666.496 380.879C667.156 379.486 668.256 378.285 669.796 377.276C671.336 376.268 673.133 375.764 675.186 375.764C677.166 375.764 678.779 376.076 680.026 376.699C681.273 377.322 682.254 378.138 682.969 379.146C683.684 380.155 684.179 381.319 684.454 382.639C684.729 383.959 684.866 385.316 684.866 386.709L684.866 401.834L681.566 401.834L681.566 386.874C681.566 385.847 681.474 384.848 681.291 383.876C681.108 382.905 680.787 382.034 680.329 381.264C679.87 380.494 679.229 379.88 678.404 379.421C677.579 378.963 676.506 378.734 675.186 378.734C673.976 378.734 672.83 378.945 671.749 379.366C670.667 379.788 669.732 380.43 668.944 381.291C668.155 382.153 667.532 383.235 667.074 384.536C666.615 385.838 666.386 387.369 666.386 389.129L666.386 401.834L663.086 401.834L663.086 383.574Z"/>
<path clip-path="url(#TextBounds_2)" d="M714.951 398.094C713.704 399.597 712.293 400.706 710.716 401.421C709.139 402.136 707.434 402.494 705.601 402.494C703.658 402.494 701.861 402.164 700.211 401.504C698.561 400.844 697.149 399.918 695.976 398.726C694.803 397.535 693.886 396.123 693.226 394.491C692.566 392.86 692.236 391.072 692.236 389.129C692.236 387.186 692.566 385.398 693.226 383.766C693.886 382.135 694.803 380.723 695.976 379.531C697.149 378.34 698.561 377.414 700.211 376.754C701.861 376.094 703.658 375.764 705.601 375.764C707.471 375.764 709.204 376.149 710.799 376.919C712.394 377.689 713.814 378.771 715.061 380.164L712.421 382.144C711.468 381.081 710.423 380.246 709.286 379.641C708.149 379.036 706.921 378.734 705.601 378.734C704.061 378.734 702.668 379.009 701.421 379.559C700.174 380.109 699.111 380.851 698.231 381.786C697.351 382.721 696.682 383.821 696.224 385.086C695.765 386.351 695.536 387.699 695.536 389.129C695.536 390.559 695.765 391.906 696.224 393.171C696.682 394.436 697.351 395.536 698.231 396.471C699.111 397.406 700.174 398.149 701.421 398.699C702.668 399.249 704.061 399.524 705.601 399.524C706.994 399.524 708.269 399.203 709.424 398.561C710.579 397.92 711.578 397.067 712.421 396.004L714.951 398.094Z"/>
<path clip-path="url(#TextBounds_2)" d="M742.561 397.049C741.278 398.992 739.692 400.386 737.804 401.229C735.915 402.072 733.834 402.494 731.561 402.494C729.618 402.494 727.858 402.164 726.281 401.504C724.704 400.844 723.348 399.918 722.211 398.726C721.074 397.535 720.204 396.123 719.599 394.491C718.994 392.86 718.691 391.054 718.691 389.074C718.691 387.167 719.003 385.407 719.626 383.794C720.249 382.181 721.129 380.778 722.266 379.586C723.403 378.395 724.741 377.46 726.281 376.781C727.821 376.103 729.526 375.764 731.396 375.764C733.339 375.764 735.054 376.103 736.539 376.781C738.024 377.46 739.27 378.358 740.279 379.476C741.287 380.595 742.048 381.869 742.561 383.299C743.074 384.729 743.331 386.177 743.331 387.644L743.331 389.954L721.991 389.954C721.991 390.651 722.129 391.54 722.404 392.621C722.679 393.703 723.183 394.757 723.916 395.784C724.649 396.811 725.63 397.691 726.859 398.424C728.087 399.157 729.673 399.524 731.616 399.524C733.303 399.524 734.934 399.121 736.511 398.314C738.088 397.507 739.298 396.407 740.141 395.014L742.561 397.049ZM740.031 386.984C740.031 385.847 739.802 384.784 739.344 383.794C738.885 382.804 738.262 381.933 737.474 381.181C736.685 380.43 735.75 379.834 734.669 379.394C733.587 378.954 732.441 378.734 731.231 378.734C729.434 378.734 727.94 379.101 726.749 379.834C725.557 380.567 724.613 381.411 723.916 382.364C723.219 383.317 722.724 384.243 722.431 385.141C722.138 386.04 721.991 386.654 721.991 386.984L740.031 386.984Z"/>
</g>
<g opacity="1">
<path d="M895.577 401.537C895.457 401.534 883.4 401.24 870.462 397.475C858.907 394.112 844.303 387.226 840.355 373.524C833.321 349.108 856.615 314.515 875.332 286.72C889.684 265.407 901.019 248.573 900.18 236.864C899.666 229.701 894.455 222.855 884.692 216.514C877.43 211.799 867.54 207.246 855.296 202.981C853.821 202.467 852.252 203.385 851.791 205.031C851.331 206.676 852.153 208.427 853.628 208.941C888.372 221.042 894.212 231.941 894.6 237.361C895.271 246.713 883.412 264.324 870.856 282.969C850.349 313.423 827.105 347.941 835.027 375.434C843.931 406.341 893.371 407.735 895.472 407.779C895.49 407.779 895.507 407.78 895.525 407.78C897.046 407.78 898.293 406.421 898.322 404.717C898.352 402.993 897.123 401.569 895.577 401.537Z" fill="#000000" fill-rule="nonzero" opacity="1" stroke="none"/>
<path d="M859.002 249.547C860.884 243.248 860.339 237.18 857.381 231.514C847.301 212.203 811.756 204.202 810.248 203.87C808.732 203.536 807.26 204.639 806.962 206.33C806.663 208.022 807.651 209.664 809.167 209.997C809.255 210.016 817.977 211.954 827.765 216.064C840.395 221.367 848.964 227.796 852.545 234.657C854.688 238.761 855.063 242.986 853.693 247.573C851.763 254.03 839.073 266.007 825.638 278.688C810.729 292.759 793.831 308.707 781.682 325.467C767.057 345.643 762.559 362.735 767.932 377.72C772.685 390.977 780.235 401.64 791.012 410.321C791.508 410.72 792.08 410.912 792.648 410.912C793.516 410.912 794.372 410.462 794.919 409.617C795.824 408.218 795.542 406.267 794.288 405.258C784.397 397.292 777.475 387.525 773.128 375.401C762.687 346.278 801.16 309.968 829.252 283.455C844.518 269.046 856.576 257.665 859.002 249.547Z" fill="#000000" fill-rule="nonzero" opacity="1" stroke="none"/>
<path d="M787.411 269.539C786.44 270.88 786.627 272.846 787.829 273.929C789.031 275.013 790.792 274.805 791.764 273.464L796.779 266.541L796.779 281.252C796.779 282.976 798.032 284.374 799.577 284.374C801.123 284.374 802.376 282.976 802.376 281.252L802.376 266.541L807.39 273.464C807.944 274.227 808.752 274.624 809.568 274.624C810.186 274.624 810.808 274.397 811.326 273.93C812.528 272.846 812.715 270.881 811.743 269.539L802.376 256.607L802.376 250.751L807.39 257.674C807.944 258.437 808.752 258.834 809.568 258.834C810.186 258.834 810.808 258.607 811.326 258.14C812.528 257.056 812.715 255.091 811.743 253.749L802.376 240.817L802.376 234.96L807.39 241.883C807.944 242.646 808.752 243.043 809.568 243.043C810.186 243.043 810.808 242.815 811.326 242.349C812.528 241.265 812.715 239.299 811.743 237.959L801.754 224.168C801.223 223.435 800.423 223.008 799.577 223.008C798.732 223.008 797.932 223.435 797.401 224.168L787.411 237.959C786.44 239.299 786.627 241.265 787.829 242.349C789.031 243.432 790.792 243.224 791.764 241.883L796.779 234.96L796.779 240.817L787.411 253.749C786.44 255.09 786.627 257.056 787.829 258.139C789.031 259.223 790.792 259.015 791.764 257.674L796.779 250.751L796.779 256.607L787.411 269.539Z" fill="#000000" fill-rule="nonzero" opacity="1" stroke="none"/>
<path d="M905.806 338.442C906.359 339.206 907.168 339.602 907.984 339.602C908.602 339.602 909.223 339.375 909.741 338.909C910.943 337.825 911.13 335.859 910.159 334.518L895.655 314.496L895.655 300.522L905.806 314.534C906.359 315.297 907.167 315.694 907.984 315.694C908.601 315.694 909.223 315.467 909.741 315C910.943 313.916 911.13 311.951 910.158 310.609L895.033 289.73C894.502 288.997 893.702 288.57 892.856 288.57C892.011 288.57 891.211 288.996 890.68 289.73L875.554 310.609C874.583 311.951 874.77 313.916 875.972 315C877.174 316.084 878.935 315.875 879.907 314.534L890.059 300.522L890.059 314.497L875.555 334.518C874.584 335.859 874.771 337.825 875.973 338.909C877.175 339.992 878.936 339.784 879.908 338.443L890.059 324.43L890.059 338.405L875.555 358.426C874.584 359.767 874.771 361.733 875.973 362.817C877.175 363.9 878.936 363.692 879.908 362.351L890.059 348.338L890.059 375.172C890.059 376.896 891.312 378.294 892.857 378.294C894.402 378.294 895.655 376.896 895.655 375.172L895.655 348.338L905.806 362.35C906.359 363.114 907.167 363.51 907.984 363.51C908.601 363.51 909.223 363.283 909.741 362.817C910.943 361.733 911.13 359.767 910.158 358.426L895.655 338.405L895.655 324.43L905.806 338.442Z" fill="#000000" fill-rule="nonzero" opacity="1" stroke="none"/>
</g>
</g>
</svg>
