<?xml version="1.0" encoding="UTF-8" standalone="no"?>
<!DOCTYPE svg PUBLIC "-//W3C//DTD SVG 1.1//EN" "http://www.w3.org/Graphics/SVG/1.1/DTD/svg11.dtd">
<!-- Created with Vectornator (http://vectornator.io/) -->
<svg height="100%" stroke-miterlimit="10" style="fill-rule:nonzero;clip-rule:evenodd;stroke-linecap:round;stroke-linejoin:round;" version="1.1" viewBox="0 0 25 25" width="100%" xml:space="preserve" xmlns="http://www.w3.org/2000/svg" xmlns:vectornator="http://vectornator.io" xmlns:xlink="http://www.w3.org/1999/xlink">
<defs/>
<g id="Untitled" vectornator:layerName="Untitled">
<g opacity="1">
<path d="M11.328 0.0277491C8.89607 0.262598 6.48366 1.25581 4.59483 2.79211C4.03699 3.24224 3.15619 4.13271 2.7158 4.68558C1.59522 6.08978 0.675279 7.98814 0.2936 9.6908C0.0538266 10.7574 0 11.2809 0 12.5041C0 13.7273 0.0538266 14.2508 0.2936 15.3174C0.680172 17.0543 1.62458 18.982 2.7843 20.4058C3.23449 20.9635 4.12507 21.8442 4.67802 22.2846C6.0824 23.405 7.98101 24.3248 9.68389 24.7064C10.7506 24.9462 11.2742 25 12.4976 25C13.7209 25 14.2445 24.9462 15.3112 24.7064C16.5884 24.4227 18.2619 23.7083 19.3629 22.9793C21.2664 21.7121 22.7295 20.0486 23.7326 18.0084C24.3443 16.7607 24.6917 15.6403 24.9119 14.2165C25.0294 13.4288 25.0294 11.5794 24.9119 10.7917C24.6917 9.36788 24.3443 8.24746 23.7326 6.99982C23.0769 5.66901 22.3478 4.65133 21.2958 3.61409C20.2633 2.59151 19.3188 1.92122 18.0025 1.27538C16.7694 0.668691 15.6244 0.311525 14.2592 0.101139C13.6426 0.00817841 11.9691-0.030963 11.328 0.0277491ZM18.8589 6.16807C18.8589 6.23167 15.0225 14.9309 14.9736 14.9798C14.9051 15.0532 6.18027 18.8744 6.15091 18.8499C6.13623 18.8303 9.679 10.7183 9.93345 10.185L10.0264 9.99904L14.406 8.07132C16.8135 7.0145 18.8002 6.14849 18.8246 6.1436C18.8442 6.1436 18.8589 6.15339 18.8589 6.16807Z" fill="#000000" fill-rule="nonzero" opacity="1" stroke="none"/>
<path d="M11.8712 11.0901C11.5287 11.2613 11.3574 11.4375 11.1861 11.8093C10.961 12.3035 11.0981 13.0031 11.4895 13.3799C11.7831 13.6588 12.0376 13.7517 12.4976 13.7517C12.9575 13.7517 13.212 13.6588 13.5056 13.3799C13.897 13.0031 14.0341 12.3035 13.809 11.8093C13.6377 11.4375 13.4664 11.2613 13.1239 11.0901C12.8792 10.9678 12.7667 10.9384 12.4976 10.9384C12.2284 10.9384 12.1159 10.9678 11.8712 11.0901Z" fill="#000000" fill-rule="nonzero" opacity="1" stroke="none"/>
</g>
</g>
</svg>
