<?xml version="1.0" encoding="UTF-8" standalone="no"?>
<!DOCTYPE svg PUBLIC "-//W3C//DTD SVG 1.1//EN" "http://www.w3.org/Graphics/SVG/1.1/DTD/svg11.dtd">
<!-- Created with Vectornator (http://vectornator.io/) -->
<svg height="100%" stroke-miterlimit="10" style="fill-rule:nonzero;clip-rule:evenodd;stroke-linecap:round;stroke-linejoin:round;" version="1.1" viewBox="0 0 25 25" width="100%" xml:space="preserve" xmlns="http://www.w3.org/2000/svg" xmlns:vectornator="http://vectornator.io" xmlns:xlink="http://www.w3.org/1999/xlink">
<defs/>
<g id="Untitled" vectornator:layerName="Untitled">
<g opacity="1">
<path d="M19.8223 23.2363L15.5719 23.2363L15.5719 17.0635L9.38949 17.0635L9.38949 23.2363L5.1391 23.2363L5.1391 13.9771L3.59351 13.9771L3.59351 25L10.9351 25L10.9351 18.8272L14.0263 18.8272L14.0263 25L21.3679 25L21.3679 13.9771L19.8223 13.9771L19.8223 23.2363Z" fill="#000000" fill-rule="nonzero" opacity="1" stroke="none"/>
<path d="M20.5951 8.37742L20.5951 1.63139L15.9583 1.63139L15.9583 3.57143L12.4807 0L0 12.8748L1.04328 14.1975L12.4807 2.38095L23.9567 14.1975L25 12.8748L20.5951 8.37742ZM17.5039 3.39506L19.0495 3.39506L19.0495 6.79012L17.5039 5.15873L17.5039 3.39506Z" fill="#000000" fill-rule="nonzero" opacity="1" stroke="none"/>
</g>
</g>
</svg>
