<?xml version="1.0" encoding="UTF-8" standalone="no"?>
<!DOCTYPE svg PUBLIC "-//W3C//DTD SVG 1.1//EN" "http://www.w3.org/Graphics/SVG/1.1/DTD/svg11.dtd">
<!-- Created with Vectornator (http://vectornator.io/) -->
<svg height="100%" stroke-miterlimit="10" style="fill-rule:nonzero;clip-rule:evenodd;stroke-linecap:round;stroke-linejoin:round;" version="1.1" viewBox="0 0 25 25" width="100%" xml:space="preserve" xmlns="http://www.w3.org/2000/svg" xmlns:vectornator="http://vectornator.io" xmlns:xlink="http://www.w3.org/1999/xlink">
<defs/>
<clipPath id="ArtboardFrame">
<rect height="25" width="25" x="0" y="0"/>
</clipPath>
<g clip-path="url(#ArtboardFrame)" id="Untitled" vectornator:layerName="Untitled">
<g opacity="1">
<path d="M3.61184 0.071708C1.7888 0.332464 0.642892 1.32334 0.187133 3.03129C0.0634264 3.48761 0.0438938 3.78096 0.0178504 5.28683C-0.0147039 6.98827-0.0147039 7.02738 0.122024 7.16428C0.258752 7.30117 0.291306 7.30117 3.6444 7.30117C6.9454 7.30117 7.03655 7.29465 7.16026 7.1708C7.28396 7.04694 7.29048 6.95567 7.29048 3.65059C7.29048 0.345502 7.28396 0.254237 7.16026 0.130378C7.03655 0.0065189 6.95191 0 5.51952 0.0065189C4.68613 0.0130378 3.8267 0.0391134 3.61184 0.071708Z" fill="#000000" fill-rule="nonzero" opacity="1" stroke="none"/>
<path d="M9.50417 0.130378C9.38046 0.254237 9.37395 0.345502 9.37395 3.65059C9.37395 6.95567 9.38046 7.04694 9.50417 7.1708C9.62787 7.29465 9.71902 7.30117 12.4992 7.30117C15.2793 7.30117 15.3704 7.29465 15.4942 7.1708C15.6179 7.04694 15.6244 6.95567 15.6244 3.65059C15.6244 0.345502 15.6179 0.254237 15.4942 0.130378C15.3704 0.0065189 15.2793 0 12.4992 0C9.71902 0 9.62787 0.0065189 9.50417 0.130378Z" fill="#000000" fill-rule="nonzero" opacity="1" stroke="none"/>
<path d="M17.8446 0.123859C17.7078 0.260756 17.7078 0.293351 17.7078 3.65059C17.7078 6.95567 17.7144 7.04694 17.8381 7.1708C17.9618 7.29465 18.0529 7.30117 21.3539 7.30117C24.6549 7.30117 24.7461 7.29465 24.8698 7.1708C24.9935 7.04694 25 6.95567 25 5.61278C25 4.82399 24.9674 3.95046 24.9284 3.67666C24.6679 1.77966 23.7109 0.65189 21.9725 0.182529C21.5232 0.065189 21.2237 0.0391134 19.7197 0.0195567C18.0204-0.0130378 17.9813-0.0130378 17.8446 0.123859Z" fill="#000000" fill-rule="nonzero" opacity="1" stroke="none"/>
<path d="M0.128535 9.5176C-0.008193 9.6545-0.008193 9.68709 0.0113396 15.5671C0.0308721 21.4537 0.037383 21.4798 0.180622 22.0013C0.408502 22.8292 0.675447 23.3116 1.19632 23.8331C1.72369 24.3611 2.21201 24.6284 3.05842 24.8501L3.61184 25L12.4992 25L21.3865 25L21.9399 24.8566C23.7043 24.3872 24.6614 23.266 24.9284 21.3559C24.974 21.0235 25 18.9113 25 15.2477C25 9.73272 25 9.64798 24.8698 9.5176C24.7396 9.38722 24.6549 9.38722 12.4992 9.38722C0.265263 9.38722 0.258752 9.38722 0.128535 9.5176ZM11.4053 12.1447C11.5356 12.1904 12.675 12.8553 13.9315 13.6245C16.3536 15.1043 16.5489 15.2542 16.6401 15.7627C16.7117 16.1213 16.5684 16.558 16.2885 16.8253C16.1583 16.9557 15.0254 17.6858 13.7688 18.455L11.49 19.8501L11.0277 19.8501C10.6305 19.8501 10.5329 19.824 10.305 19.6675C10.1618 19.5698 9.97946 19.3677 9.88831 19.2112L9.73205 18.9374L9.71251 16.1995C9.68647 13.0313 9.69949 12.9009 10.1162 12.4902C10.5068 12.0991 10.9105 11.9883 11.4053 12.1447Z" fill="#000000" fill-rule="nonzero" opacity="1" stroke="none"/>
</g>
</g>
</svg>
